<?xml version="1.0" encoding="UTF-8"?>
<svg xmlns="http://www.w3.org/2000/svg" viewBox="0 0 600 300" role="img" aria-labelledby="title desc">
  <title id="title">Xbox Visual Layout</title>
  <desc id="desc">Front layout diagram, not including button names.</desc>

  <rect x="10" y="10" width="580" height="280" rx="18" fill="#eff" stroke="#e3eefc"/>

  <!-- Left Joystick -->
  <g transform="translate(130,100)">
    <circle cx="0" cy="0" r="30" fill="#eef4ff" stroke="#d6e6ff"/>
    <circle cx="0" cy="0" r="16" fill="#c7d2fe" stroke="#a5b4fc"/>
  </g>

  <!-- D-pad -->
  <g transform="translate(180,170)">
    <rect x="-50" y="-10" width="100" height="20" rx="8" fill="#f3f7ff" stroke="#d6e6ff"/>
    <rect x="-10" y="-50" width="20" height="100" rx="8" fill="#f3f7ff" stroke="#d6e6ff"/>
  </g>

  <!-- Right Joystick -->
  <g transform="translate(370,200)">
    <circle cx="0" cy="0" r="30" fill="#eef4ff" stroke="#d6e6ff"/>
    <circle cx="0" cy="0" r="16" fill="#c7d2fe" stroke="#a5b4fc"/>
  </g>

  <!-- ABXY Buttons -->
  <g transform="translate(460,130)">
    <circle cx="-45" cy="0" r="26" fill="#d6d6ff" stroke="#b3b3ff"/>
    <circle cx="0" cy="-45" r="26" fill="#fff0d6" stroke="#ffe4b3"/>
    <circle cx="45" cy="0" r="26" fill="#ffd6d6" stroke="#ffb3b3"/>
    <circle cx="0" cy="45" r="26" fill="#d6ffd6" stroke="#b3ffb3"/>
  </g>

  <!-- Bumpers and Triggers -->
  <g>
    <rect x="40" y="18" width="140" height="14" rx="7" fill="#f3f7ff" stroke="#d6e6ff"/>
    <rect x="420" y="18" width="140" height="14" rx="7" fill="#f3f7ff" stroke="#d6e6ff"/>
    <rect x="50" y="40" width="120" height="18" rx="9" fill="#f3f7ff" stroke="#d6e6ff"/>
    <rect x="430" y="40" width="120" height="18" rx="9" fill="#f3f7ff" stroke="#d6e6ff"/>
  </g>

  <!-- Center Buttons (Xbox, Start, Select) -->
  <g>
    <circle cx="300" cy="90" r="14" fill="#ffffff" stroke="#d6e6ff"/>
    <text x="300" y="95" text-anchor="middle" font-size="12" fill="#16a34a">X</text>
    <circle cx="260" cy="120" r="8" fill="#f3f7ff" stroke="#d6e6ff"/>
    <circle cx="340" cy="120" r="8" fill="#f3f7ff" stroke="#d6e6ff"/>
  </g>
</svg>
