<?xml version="1.0" encoding="UTF-8"?>
<svg xmlns="http://www.w3.org/2000/svg" viewBox="0 0 600 300" role="img" aria-labelledby="title desc">
  <title id="title">Xbox Controller Layout</title>
  <desc id="desc">Front layout diagram including ABXY buttons, D-pad, joysticks, bumpers, triggers, Start, Select, and Xbox logo.</desc>

  <rect x="10" y="10" width="580" height="280" rx="18" fill="#fff" stroke="#e3eefc"/>

  <!-- Left Joystick -->
  <g transform="translate(130,100)">
    <circle cx="0" cy="0" r="30" fill="#eef4ff" stroke="#d6e6ff"/>
    <circle cx="0" cy="0" r="16" fill="#c7d2fe" stroke="#a5b4fc"/>
    <text x="0" y="52" text-anchor="middle" fill="#475569" font-size="14">Left Stick</text>
  </g>

  <!-- D-pad -->
  <g transform="translate(180,170)">
    <rect x="-50" y="-10" width="100" height="20" rx="8" fill="#f3f7ff" stroke="#d6e6ff"/>
    <rect x="-10" y="-50" width="20" height="100" rx="8" fill="#f3f7ff" stroke="#d6e6ff"/>
    <text x="0" y="80" text-anchor="middle" fill="#475569" font-size="14">D-Pad</text>
  </g>

  <!-- Right Joystick -->
  <g transform="translate(370,200)">
    <circle cx="0" cy="0" r="30" fill="#eef4ff" stroke="#d6e6ff"/>
    <circle cx="0" cy="0" r="16" fill="#c7d2fe" stroke="#a5b4fc"/>
    <text x="0" y="52" text-anchor="middle" fill="#475569" font-size="14">Right Stick</text>
  </g>

  <!-- ABXY Buttons -->
  <g transform="translate(460,130)">
    <circle cx="-45" cy="0" r="26" fill="#d6d6ff" stroke="#b3b3ff"/>
    <text x="-45" y="5" text-anchor="middle" font-size="14" fill="#1d1d7f">X</text>
    <circle cx="0" cy="-45" r="26" fill="#fff0d6" stroke="#ffe4b3"/>
    <text x="0" y="-40" text-anchor="middle" font-size="14" fill="#5b3f16">Y</text>
    <circle cx="45" cy="0" r="26" fill="#ffd6d6" stroke="#ffb3b3"/>
    <text x="45" y="5" text-anchor="middle" font-size="14" fill="#7f1d1d">B</text>
    <circle cx="0" cy="45" r="26" fill="#d6ffd6" stroke="#b3ffb3"/>
    <text x="0" y="50" text-anchor="middle" font-size="14" fill="#165b16">A</text>
    <text x="0" y="95" text-anchor="middle" fill="#475569" font-size="14">ABXY Buttons</text>
  </g>

  <!-- Bumpers and Triggers -->
  <g>
    <rect x="40" y="18" width="140" height="14" rx="7" fill="#f3f7ff" stroke="#d6e6ff"/>
    <text x="110" y="28" text-anchor="middle" fill="#475569" font-size="12">LT</text>
    <rect x="420" y="18" width="140" height="14" rx="7" fill="#f3f7ff" stroke="#d6e6ff"/>
    <text x="490" y="28" text-anchor="middle" fill="#475569" font-size="12">RT</text>
    <rect x="50" y="40" width="120" height="18" rx="9" fill="#f3f7ff" stroke="#d6e6ff"/>
    <text x="110" y="53" text-anchor="middle" fill="#475569" font-size="12">LB</text>
    <rect x="430" y="40" width="120" height="18" rx="9" fill="#f3f7ff" stroke="#d6e6ff"/>
    <text x="490" y="53" text-anchor="middle" fill="#475569" font-size="12">RB</text>
  </g>

  <!-- Center Buttons (Xbox, Start, Select) -->
  <g>
    <circle cx="300" cy="90" r="14" fill="#ffffff" stroke="#d6e6ff"/>
    <text x="300" y="95" text-anchor="middle" font-size="12" fill="#16a34a">X</text>
    <circle cx="260" cy="120" r="8" fill="#f3f7ff" stroke="#d6e6ff"/>
    <text x="260" y="140" text-anchor="middle" font-size="12" fill="#475569">Select</text>
    <circle cx="340" cy="120" r="8" fill="#f3f7ff" stroke="#d6e6ff"/>
    <text x="340" y="140" text-anchor="middle" font-size="12" fill="#475569">Start</text>
  </g>
</svg>
