<?xml version="1.0" encoding="UTF-8"?>
<svg xmlns="http://www.w3.org/2000/svg" viewBox="0 0 600 300" role="img" aria-labelledby="title desc">
  <title id="title">Xbox controller — ABXY, D-pad, joysticks, bumpers, triggers, Start, Select, and Xbox logo</title>
  <desc id="desc">Front layout diagram including ABXY diamond (A bottom, B right, X left, Y top), D-pad, left/right joysticks, LB/RB bumpers, LT/RT triggers, Start, Select, and Xbox logo buttons.</desc>

  <rect x="10" y="10" width="580" height="280" rx="18" fill="#fff" stroke="#e3eefc"/>

  <g transform="translate(150,150)">
    <rect x="-56" y="-12" width="112" height="24" rx="8" fill="#f3f7ff" stroke="#d6e6ff"/>
    <rect x="-12" y="-56" width="24" height="112" rx="8" fill="#f3f7ff" stroke="#d6e6ff"/>
    <g font-size="10" fill="#64748b" text-anchor="middle">
      <text x="0" y="-66">Up</text>
      <text x="0" y="78">Down</text>
      <text x="-72" y="4">Left</text>
      <text x="72" y="4">Right</text>
    </g>
    <text x="0" y="106" text-anchor="middle" fill="#475569" font-size="14">D-Pad</text>
  </g>

  <g transform="translate(430,150)">
    <circle cx="-45" cy="0" r="26" fill="#d6d6ff" stroke="#b3b3ff"/>
    <text x="-45" y="5" text-anchor="middle" font-size="14" fill="#1d1d7f">X</text>
    <circle cx="0" cy="-45" r="26" fill="#fff0d6" stroke="#ffe4b3"/>
    <text x="0" y="-40" text-anchor="middle" font-size="14" fill="#5b3f16">Y</text>
    <circle cx="45" cy="0" r="26" fill="#ffd6d6" stroke="#ffb3b3"/>
    <text x="45" y="5" text-anchor="middle" font-size="14" fill="#7f1d1d">B</text>
    <circle cx="0" cy="45" r="26" fill="#d6ffd6" stroke="#b3ffb3"/>
    <text x="0" y="50" text-anchor="middle" font-size="14" fill="#165b16">A</text>
    <text x="0" y="90" text-anchor="middle" fill="#475569" font-size="14">ABXY — Xbox layout (A↓, B→, X←, Y↑)</text>
  </g>

  <g transform="translate(150,220)">
    <circle cx="0" cy="0" r="30" fill="#eef4ff" stroke="#d6e6ff"/>
    <circle cx="0" cy="0" r="16" fill="#c7d2fe" stroke="#a5b4fc"/>
    <text x="0" y="52" text-anchor="middle" fill="#475569" font-size="14">Left Stick</text>
  </g>

  <g transform="translate(360,220)">
    <circle cx="0" cy="0" r="30" fill="#eef4ff" stroke="#d6e6ff"/>
    <circle cx="0" cy="0" r="16" fill="#c7d2fe" stroke="#a5b4fc"/>
    <text x="0" y="52" text-anchor="middle" fill="#475569" font-size="14">Right Stick</text>
  </g>

  <g>
    <rect x="40" y="18" width="140" height="14" rx="7" fill="#f3f7ff" stroke="#d6e6ff"/>
    <text x="110" y="28" text-anchor="middle" fill="#475569" font-size="12">LT</text>
    <rect x="420" y="18" width="140" height="14" rx="7" fill="#f3f7ff" stroke="#d6e6ff"/>
    <text x="490" y="28" text-anchor="middle" fill="#475569" font-size="12">RT</text>
    <rect x="50" y="40" width="120" height="18" rx="9" fill="#f3f7ff" stroke="#d6e6ff"/>
    <text x="110" y="53" text-anchor="middle" fill="#475569" font-size="12">LB</text>
    <rect x="430" y="40" width="120" height="18" rx="9" fill="#f3f7ff" stroke="#d6e6ff"/>
    <text x="490" y="53" text-anchor="middle" fill="#475569" font-size="12">RB</text>
  </g>

  <g>
    <circle cx="300" cy="90" r="14" fill="#ffffff" stroke="#d6e6ff"/>
    <text x="300" y="95" text-anchor="middle" font-size="12" fill="#16a34a">X</text>
    <circle cx="262" cy="120" r="8" fill="#f3f7ff" stroke="#d6e6ff"/>
    <text x="262" y="140" text-anchor="middle" font-size="12" fill="#475569">SELECT</text>
    <circle cx="338" cy="120" r="8" fill="#f3f7ff" stroke="#d6e6ff"/>
    <text x="338" y="140" text-anchor="middle" font-size="12" fill="#475569">START</text>
  </g>
</svg>
